<svg width="116" height="23" viewBox="0 0 116 23" fill="none" xmlns="http://www.w3.org/2000/svg">
<rect width="115.063" height="22.624" fill="white"/>
<path d="M95.2389 15.648C94.4495 15.648 93.7509 15.4827 93.1429 15.152C92.5455 14.8107 92.0762 14.336 91.7349 13.728C91.4042 13.1093 91.2389 12.384 91.2389 11.552V11.36C91.2389 10.528 91.4042 9.808 91.7349 9.2C92.0655 8.58133 92.5295 8.10667 93.1269 7.776C93.7242 7.43467 94.4175 7.264 95.2069 7.264C95.9855 7.264 96.6629 7.44 97.2389 7.792C97.8149 8.13333 98.2629 8.61333 98.5829 9.232C98.9029 9.84 99.0629 10.5493 99.0629 11.36V12.048H93.2869C93.3082 12.592 93.5109 13.0347 93.8949 13.376C94.2789 13.7173 94.7482 13.888 95.3029 13.888C95.8682 13.888 96.2842 13.7653 96.5509 13.52C96.8176 13.2747 97.0202 13.0027 97.1589 12.704L98.8069 13.568C98.6575 13.8453 98.4389 14.1493 98.1509 14.48C97.8735 14.8 97.5002 15.0773 97.0309 15.312C96.5615 15.536 95.9642 15.648 95.2389 15.648ZM93.3029 10.544H97.0149C96.9722 10.0853 96.7855 9.71733 96.4549 9.44C96.1349 9.16267 95.7135 9.024 95.1909 9.024C94.6469 9.024 94.2149 9.16267 93.8949 9.44C93.5749 9.71733 93.3775 10.0853 93.3029 10.544Z" fill="#222222"/>
<path d="M85.9759 15.648C85.2079 15.648 84.5092 15.488 83.8799 15.168C83.2612 14.848 82.7705 14.384 82.4079 13.776C82.0452 13.168 81.8639 12.432 81.8639 11.568V11.344C81.8639 10.48 82.0452 9.744 82.4079 9.136C82.7705 8.528 83.2612 8.064 83.8799 7.744C84.5092 7.424 85.2079 7.264 85.9759 7.264C86.7332 7.264 87.3839 7.39733 87.9279 7.664C88.4719 7.93067 88.9092 8.29867 89.2399 8.768C89.5812 9.22667 89.8052 9.74933 89.9119 10.336L87.9599 10.752C87.9172 10.432 87.8212 10.144 87.6719 9.888C87.5225 9.632 87.3092 9.42933 87.0319 9.28C86.7652 9.13067 86.4292 9.056 86.0239 9.056C85.6185 9.056 85.2505 9.14667 84.9199 9.328C84.5999 9.49867 84.3439 9.76 84.1519 10.112C83.9705 10.4533 83.8799 10.8747 83.8799 11.376V11.536C83.8799 12.0373 83.9705 12.464 84.1519 12.816C84.3439 13.1573 84.5999 13.4187 84.9199 13.6C85.2505 13.7707 85.6185 13.856 86.0239 13.856C86.6319 13.856 87.0905 13.7013 87.3999 13.392C87.7199 13.072 87.9225 12.656 88.0079 12.144L89.9599 12.608C89.8212 13.1733 89.5812 13.6907 89.2399 14.16C88.9092 14.6187 88.4719 14.9813 87.9279 15.248C87.3839 15.5147 86.7332 15.648 85.9759 15.648Z" fill="#222222"/>
<path d="M75.6181 15.648C75.0528 15.648 74.5461 15.552 74.0981 15.36C73.6501 15.1573 73.2928 14.8693 73.0261 14.496C72.7701 14.112 72.6421 13.648 72.6421 13.104C72.6421 12.56 72.7701 12.1067 73.0261 11.744C73.2928 11.3707 73.6555 11.0933 74.1141 10.912C74.5835 10.72 75.1168 10.624 75.7141 10.624H77.8901V10.176C77.8901 9.80267 77.7728 9.49867 77.5381 9.264C77.3035 9.01867 76.9301 8.896 76.4181 8.896C75.9168 8.896 75.5435 9.01333 75.2981 9.248C75.0528 9.472 74.8928 9.76533 74.8181 10.128L72.9621 9.504C73.0901 9.09867 73.2928 8.73067 73.5701 8.4C73.8581 8.05867 74.2368 7.78667 74.7061 7.584C75.1861 7.37067 75.7675 7.264 76.4501 7.264C77.4955 7.264 78.3221 7.52533 78.9301 8.048C79.5381 8.57067 79.8421 9.328 79.8421 10.32V13.28C79.8421 13.6 79.9915 13.76 80.2901 13.76H80.9301V15.424H79.5861C79.1915 15.424 78.8661 15.328 78.6101 15.136C78.3541 14.944 78.2261 14.688 78.2261 14.368V14.352H77.9221C77.8795 14.48 77.7835 14.6507 77.6341 14.864C77.4848 15.0667 77.2501 15.248 76.9301 15.408C76.6101 15.568 76.1728 15.648 75.6181 15.648ZM75.9701 14.016C76.5355 14.016 76.9941 13.8613 77.3461 13.552C77.7088 13.232 77.8901 12.8107 77.8901 12.288V12.128H75.8581C75.4848 12.128 75.1915 12.208 74.9781 12.368C74.7648 12.528 74.6581 12.752 74.6581 13.04C74.6581 13.328 74.7701 13.5627 74.9941 13.744C75.2181 13.9253 75.5435 14.016 75.9701 14.016Z" fill="#222222"/>
<path d="M62.951 18.624V7.488H64.935V8.448H65.223C65.4043 8.13867 65.687 7.86667 66.071 7.632C66.455 7.38667 67.0043 7.264 67.719 7.264C68.359 7.264 68.951 7.424 69.495 7.744C70.039 8.05333 70.4763 8.512 70.807 9.12C71.1377 9.728 71.303 10.464 71.303 11.328V11.584C71.303 12.448 71.1377 13.184 70.807 13.792C70.4763 14.4 70.039 14.864 69.495 15.184C68.951 15.4933 68.359 15.648 67.719 15.648C67.239 15.648 66.8337 15.5893 66.503 15.472C66.183 15.3653 65.9217 15.2267 65.719 15.056C65.527 14.8747 65.3723 14.6933 65.255 14.512H64.967V18.624H62.951ZM67.111 13.888C67.7403 13.888 68.2577 13.6907 68.663 13.296C69.079 12.8907 69.287 12.304 69.287 11.536V11.376C69.287 10.608 69.079 10.0267 68.663 9.632C68.247 9.22667 67.7297 9.024 67.111 9.024C66.4923 9.024 65.975 9.22667 65.559 9.632C65.143 10.0267 64.935 10.608 64.935 11.376V11.536C64.935 12.304 65.143 12.8907 65.559 13.296C65.975 13.6907 66.4923 13.888 67.111 13.888Z" fill="#222222"/>
<path d="M57.0719 15.648C56.2079 15.648 55.4452 15.4933 54.7839 15.184C54.1225 14.8747 53.6052 14.432 53.2319 13.856C52.8585 13.28 52.6719 12.5867 52.6719 11.776V11.328H54.7519V11.776C54.7519 12.448 54.9599 12.9547 55.3759 13.296C55.7919 13.6267 56.3572 13.792 57.0719 13.792C57.7972 13.792 58.3359 13.648 58.6879 13.36C59.0505 13.072 59.2319 12.704 59.2319 12.256C59.2319 11.9467 59.1412 11.696 58.9599 11.504C58.7892 11.312 58.5332 11.1573 58.1919 11.04C57.8612 10.912 57.4559 10.7947 56.9759 10.688L56.6079 10.608C55.8399 10.4373 55.1785 10.224 54.6239 9.968C54.0799 9.70133 53.6585 9.35467 53.3599 8.928C53.0719 8.50133 52.9279 7.94667 52.9279 7.264C52.9279 6.58133 53.0879 6 53.4079 5.52C53.7385 5.02933 54.1972 4.656 54.7839 4.4C55.3812 4.13333 56.0799 4 56.8799 4C57.6799 4 58.3892 4.13867 59.0079 4.416C59.6372 4.68267 60.1279 5.088 60.4799 5.632C60.8425 6.16533 61.0239 6.83733 61.0239 7.648V8.128H58.9439V7.648C58.9439 7.22133 58.8585 6.88 58.6879 6.624C58.5279 6.35733 58.2932 6.16533 57.9839 6.048C57.6745 5.92 57.3065 5.856 56.8799 5.856C56.2399 5.856 55.7652 5.97867 55.4559 6.224C55.1572 6.45867 55.0079 6.784 55.0079 7.2C55.0079 7.47733 55.0772 7.712 55.2159 7.904C55.3652 8.096 55.5839 8.256 55.8719 8.384C56.1599 8.512 56.5279 8.624 56.9759 8.72L57.3439 8.8C58.1439 8.97067 58.8372 9.18933 59.4239 9.456C60.0212 9.72267 60.4852 10.0747 60.8159 10.512C61.1465 10.9493 61.3119 11.5093 61.3119 12.192C61.3119 12.8747 61.1359 13.4773 60.7839 14C60.4425 14.512 59.9519 14.9173 59.3119 15.216C58.6825 15.504 57.9359 15.648 57.0719 15.648Z" fill="#222222"/>
<path d="M35.5291 15.424V7.488H37.5131V8.352H37.8011C37.9398 8.08533 38.1691 7.856 38.4891 7.664C38.8091 7.46133 39.2305 7.36 39.7531 7.36C40.3185 7.36 40.7718 7.472 41.1131 7.696C41.4545 7.90933 41.7158 8.192 41.8971 8.544H42.1851C42.3665 8.20267 42.6225 7.92 42.9531 7.696C43.2838 7.472 43.7531 7.36 44.3611 7.36C44.8518 7.36 45.2945 7.46667 45.6891 7.68C46.0945 7.88267 46.4145 8.19733 46.6491 8.624C46.8945 9.04 47.0171 9.568 47.0171 10.208V15.424H45.0011V10.352C45.0011 9.91467 44.8891 9.58933 44.6651 9.376C44.4411 9.152 44.1265 9.04 43.7211 9.04C43.2625 9.04 42.9051 9.18933 42.6491 9.488C42.4038 9.776 42.2811 10.192 42.2811 10.736V15.424H40.2651V10.352C40.2651 9.91467 40.1531 9.58933 39.9291 9.376C39.7051 9.152 39.3905 9.04 38.9851 9.04C38.5265 9.04 38.1691 9.18933 37.9131 9.488C37.6678 9.776 37.5451 10.192 37.5451 10.736V15.424H35.5291Z" fill="#222222"/>
<path d="M28.7431 15.648C28.1778 15.648 27.6711 15.552 27.2231 15.36C26.7751 15.1573 26.4178 14.8693 26.1511 14.496C25.8951 14.112 25.7671 13.648 25.7671 13.104C25.7671 12.56 25.8951 12.1067 26.1511 11.744C26.4178 11.3707 26.7805 11.0933 27.2391 10.912C27.7085 10.72 28.2418 10.624 28.8391 10.624H31.0151V10.176C31.0151 9.80267 30.8978 9.49867 30.6631 9.264C30.4285 9.01867 30.0551 8.896 29.5431 8.896C29.0418 8.896 28.6685 9.01333 28.4231 9.248C28.1778 9.472 28.0178 9.76533 27.9431 10.128L26.0871 9.504C26.2151 9.09867 26.4178 8.73067 26.6951 8.4C26.9831 8.05867 27.3618 7.78667 27.8311 7.584C28.3111 7.37067 28.8925 7.264 29.5751 7.264C30.6205 7.264 31.4471 7.52533 32.0551 8.048C32.6631 8.57067 32.9671 9.328 32.9671 10.32V13.28C32.9671 13.6 33.1165 13.76 33.4151 13.76H34.0551V15.424H32.7111C32.3165 15.424 31.9911 15.328 31.7351 15.136C31.4791 14.944 31.3511 14.688 31.3511 14.368V14.352H31.0471C31.0045 14.48 30.9085 14.6507 30.7591 14.864C30.6098 15.0667 30.3751 15.248 30.0551 15.408C29.7351 15.568 29.2978 15.648 28.7431 15.648ZM29.0951 14.016C29.6605 14.016 30.1191 13.8613 30.4711 13.552C30.8338 13.232 31.0151 12.8107 31.0151 12.288V12.128H28.9831C28.6098 12.128 28.3165 12.208 28.1031 12.368C27.8898 12.528 27.7831 12.752 27.7831 13.04C27.7831 13.328 27.8951 13.5627 28.1191 13.744C28.3431 13.9253 28.6685 14.016 29.0951 14.016Z" fill="#222222"/>
<path d="M20.4 15.648C19.536 15.648 18.7733 15.4933 18.112 15.184C17.4507 14.8747 16.9333 14.432 16.56 13.856C16.1867 13.28 16 12.5867 16 11.776V11.328H18.08V11.776C18.08 12.448 18.288 12.9547 18.704 13.296C19.12 13.6267 19.6853 13.792 20.4 13.792C21.1253 13.792 21.664 13.648 22.016 13.36C22.3787 13.072 22.56 12.704 22.56 12.256C22.56 11.9467 22.4693 11.696 22.288 11.504C22.1173 11.312 21.8613 11.1573 21.52 11.04C21.1893 10.912 20.784 10.7947 20.304 10.688L19.936 10.608C19.168 10.4373 18.5067 10.224 17.952 9.968C17.408 9.70133 16.9867 9.35467 16.688 8.928C16.4 8.50133 16.256 7.94667 16.256 7.264C16.256 6.58133 16.416 6 16.736 5.52C17.0667 5.02933 17.5253 4.656 18.112 4.4C18.7093 4.13333 19.408 4 20.208 4C21.008 4 21.7173 4.13867 22.336 4.416C22.9653 4.68267 23.456 5.088 23.808 5.632C24.1707 6.16533 24.352 6.83733 24.352 7.648V8.128H22.272V7.648C22.272 7.22133 22.1867 6.88 22.016 6.624C21.856 6.35733 21.6213 6.16533 21.312 6.048C21.0027 5.92 20.6347 5.856 20.208 5.856C19.568 5.856 19.0933 5.97867 18.784 6.224C18.4853 6.45867 18.336 6.784 18.336 7.2C18.336 7.47733 18.4053 7.712 18.544 7.904C18.6933 8.096 18.912 8.256 19.2 8.384C19.488 8.512 19.856 8.624 20.304 8.72L20.672 8.8C21.472 8.97067 22.1653 9.18933 22.752 9.456C23.3493 9.72267 23.8133 10.0747 24.144 10.512C24.4747 10.9493 24.64 11.5093 24.64 12.192C24.64 12.8747 24.464 13.4773 24.112 14C23.7707 14.512 23.28 14.9173 22.64 15.216C22.0107 15.504 21.264 15.648 20.4 15.648Z" fill="#222222"/>
</svg>
